<?xml version="1.0" encoding="iso-8859-1"?>
<!-- Generator: Adobe Illustrator 19.0.0, SVG Export Plug-In . SVG Version: 6.00 Build 0)  -->
<svg version="1.1" id="Capa_1" xmlns="http://www.w3.org/2000/svg" xmlns:xlink="http://www.w3.org/1999/xlink" x="0px" y="0px"
	 viewBox="0 0 512.001 512.001" style="enable-background:new 0 0 512.001 512.001;" xml:space="preserve">
<path style="fill:#B9D8F4;" d="M247.591,404.321h-77.848c0,0,23.59,6.342,23.59,37.88l0,0c-6.902,4.838-11.419,12.848-11.419,21.917
	c0,14.775,11.978,26.753,26.753,26.753s26.753-11.978,26.753-26.753c0-9.056-4.504-17.054-11.389-21.894l0,0
	C224.032,411.564,247.591,404.321,247.591,404.321z"/>
<path style="fill:#96C8EF;" d="M247.591,404.321h-77.848c0,0,23.028,6.212,23.565,36.805c5.045,0.558,10.168,0.854,15.359,0.854
	c5.202,0,10.335-0.297,15.391-0.858C224.622,411.403,247.591,404.321,247.591,404.321z"/>
<path style="fill:#D1E7F8;" d="M253.759,504.396h-90.184c-7.439,0-13.526-6.086-13.526-13.526l0,0
	c0-7.439,6.086-13.526,13.526-13.526h90.184c7.439,0,13.526,6.086,13.526,13.526l0,0
	C267.284,498.31,261.198,504.396,253.759,504.396z"/>
<path style="fill:#B9D8F4;" d="M181.817,490.87L181.817,490.87c0-7.439,6.086-13.526,13.526-13.526h-31.767
	c-7.439,0-13.526,6.086-13.526,13.526l0,0c0,7.439,6.086,13.526,13.526,13.526h31.767
	C187.903,504.396,181.817,498.31,181.817,490.87z"/>
<path style="fill:#FF3F62;" d="M168.306,180.419L154.75,59.701l-41.384-29.049c-5.728-4.021-7.113-11.925-3.091-17.654
	c4.022-5.728,11.926-7.112,17.654-3.091l46.059,32.331c2.973,2.087,4.907,5.349,5.313,8.958l14.194,126.395
	c0.782,6.955-4.218,13.288-11.18,14.008C172.278,192.638,169.033,186.894,168.306,180.419z"/>
<path style="fill:#FF0C38;" d="M192.298,184.468c-6.366,0-11.851-4.784-12.578-11.26L166.725,57.498
	c-0.537-4.782-4.7-7.911-4.701-7.912L124.78,23.442c-5.141-3.609-6.77-10.341-4.145-15.826l0,0
	c-3.981,0.007-7.899,1.877-10.361,5.383c-4.021,5.728-2.637,13.632,3.091,17.654l41.384,29.049l13.556,120.718
	c0.727,6.476,3.972,12.219,14.008,11.18c4.489-0.465,8.151-3.27,9.984-7.064c0.008-0.019,0.014-0.05,0.023-0.068
	C192.314,184.467,192.306,184.468,192.298,184.468z"/>
<path style="fill:#4E901E;" d="M259.712,119.415c0.693,15.791-11.548,29.153-27.339,29.846s-29.153-11.548-29.846-27.339
	S210.372,8.302,226.163,7.61S259.02,103.623,259.712,119.415z"/>
<path style="fill:#47821C;" d="M259.712,119.443c-0.681-15.533-17.205-109.355-32.775-111.759l-0.776-0.047l6.216,141.651
	C248.167,148.595,260.405,135.233,259.712,119.443z"/>
<path style="fill:#5EAC24;" d="M268.949,131.929c-5.315,14.886-21.69,22.646-36.576,17.332
	c-14.886-5.315-22.646-21.69-17.332-36.576c5.314-14.885,50.116-102.272,65.002-96.957
	C294.931,21.042,274.264,117.044,268.949,131.929z"/>
<path style="fill:#4E901E;" d="M268.949,131.929c5.315-14.886,25.98-110.888,11.094-116.202l-47.671,133.534
	C247.26,154.576,263.636,146.815,268.949,131.929z"/>
<circle style="fill:#FF0C38;" cx="342.159" cy="92.433" r="33.63"/>
<path style="fill:#D80027;" d="M368.351,113.509c-8.275-20.954-22.839-38.761-41.349-51.091
	c-10.956,5.543-18.47,16.898-18.47,30.014c0,18.571,15.055,33.627,33.627,33.627C352.747,126.058,362.187,121.159,368.351,113.509z"
	/>
<path style="fill:#6DC82A;" d="M266.456,74.524c-5.599,0-10.139,4.539-10.139,10.139v68.942c0,5.6,4.54,10.139,10.139,10.139h68.942
	c5.599,0,10.139-4.539,10.139-10.139C345.537,109.999,310.062,74.524,266.456,74.524z"/>
<path style="fill:#5EAC24;" d="M266.456,74.524c-5.599,0-10.139,4.539-10.139,10.139v68.942c0,5.6,4.54,10.139,10.139,10.139h27.809
	V79.586C285.609,76.322,276.24,74.524,266.456,74.524z"/>
<path style="fill:#FFE477;" d="M256.318,92.432v61.173c0,5.6,4.54,10.139,10.139,10.139h61.485
	C324.399,125.95,294.157,95.815,256.318,92.432z"/>
<path style="fill:#FFDA44;" d="M256.318,92.432v61.173c0,5.6,4.54,10.139,10.139,10.139h27.809v-57.502
	C283.305,98.617,270.335,93.685,256.318,92.432z"/>
<path style="fill:#D1E7F8;" d="M302.494,253.757c-3.667-7.212-39.608-53.844-8.456-115.382c1.463-2.891,1.679-6.246,0.074-9.061
	c-1.604-2.814-4.595-4.552-7.834-4.552H131.056c-3.239,0-6.23,1.738-7.834,4.552c-1.604,2.814-1.389,6.17,0.074,9.061
	c31.153,61.538-4.788,108.17-8.456,115.382c-9.694,19.063-14.611,35.674-14.611,49.369c0,59.793,48.645,108.437,108.437,108.438
	c59.793,0,108.437-48.645,108.437-108.438C317.104,289.431,312.188,272.821,302.494,253.757z"/>
<path style="fill:#B9D8F4;" d="M158.122,303.126c0-13.695,4.915-30.305,14.611-49.369c3.667-7.212,39.608-53.844,8.456-115.382
	c-1.463-2.891-1.679-6.246-0.074-9.061c1.604-2.814,4.595-4.552,7.834-4.552h-57.893c-3.239,0-6.23,1.738-7.834,4.552
	c-1.604,2.814-1.389,6.17,0.074,9.061c31.153,61.538-4.788,108.17-8.456,115.382c-9.696,19.063-14.611,35.674-14.611,49.369
	c0,59.793,48.645,108.437,108.437,108.438c10.022,0,19.728-1.373,28.947-3.93C191.829,394.938,158.122,352.897,158.122,303.126z"/>
<path style="fill:#FFE477;" d="M282.479,261.895c-0.075-0.15-31.014-50.819-16.289-100.784c0.762-2.585,0.34-5.374-1.256-7.547
	c-1.596-2.173-4.13-3.455-6.826-3.455h-98.885c-2.696,0-5.23,1.283-6.826,3.455c-1.597,2.173-2.019,4.961-1.256,7.547
	c14.725,49.964-16.214,100.633-16.289,100.784c-7.821,15.439-11.786,28.467-11.786,38.722c0,47.199,38.4,85.6,85.599,85.6
	s85.599-38.4,85.599-85.6C294.266,290.362,290.301,277.334,282.479,261.895z"/>
<g>
	<path style="fill:#FFDA44;" d="M195.842,385.253c-23.081-19.899-37.721-49.332-37.721-82.128c0-13.695,4.915-30.305,14.611-49.369
		c3.43-6.745,35.094-47.984,13.676-103.649h-27.185c-2.696,0-5.23,1.283-6.826,3.455c-1.596,2.172-2.019,4.961-1.256,7.547
		c14.725,49.964-16.213,100.633-16.289,100.783c-7.821,15.439-11.786,28.467-11.786,38.722
		C123.068,343.459,154.705,379.047,195.842,385.253z"/>
	<path style="fill:#FFDA44;" d="M258.07,326.342c-3.977-1.349-6.009-5.771-4.591-9.724c0.901-2.514,1.592-5.127,2.054-7.765
		c0.726-4.136,4.67-6.9,8.802-6.177c4.137,0.725,6.903,4.666,6.178,8.802c-0.612,3.489-1.527,6.945-2.72,10.272
		C266.68,324.856,263.668,328.241,258.07,326.342z"/>
	<path style="fill:#FFDA44;" d="M208.667,363.406c-4.199,0-7.604-3.405-7.604-7.604s3.405-7.604,7.604-7.604
		c12.779,0,24.781-5.018,33.8-14.129c2.953-2.986,7.767-3.009,10.753-0.056c2.984,2.954,3.009,7.769,0.055,10.753
		C241.379,356.786,225.536,363.406,208.667,363.406z"/>
</g>
<path style="fill:#FFF5CC;" d="M258.109,150.11h-98.885c-2.696,0-5.23,1.284-6.826,3.455c-1.596,2.173-2.019,4.961-1.256,7.547
	c2.638,8.951,3.805,17.924,3.952,26.626h107.146c0.147-8.702,1.314-17.675,3.952-26.626c0.762-2.585,0.34-5.374-1.256-7.547
	C263.34,151.392,260.804,150.11,258.109,150.11z"/>
<path style="fill:#FFEB99;" d="M159.224,150.11c-2.696,0-5.23,1.284-6.826,3.455c-1.596,2.173-2.019,4.961-1.256,7.547
	c2.638,8.951,3.805,17.924,3.952,26.626h38.689c-0.114-11.506-2.185-24.143-7.374-37.629h-27.185V150.11z"/>
<path d="M128.07,258.458c-8.365,16.513-12.607,30.697-12.607,42.159c0,51.392,41.81,93.204,93.203,93.204
	c51.391,0,93.203-41.81,93.203-93.204c0-11.462-4.242-25.646-12.61-42.168c-0.076-0.151-0.189-0.35-0.275-0.496
	c-1.185-1.991-28.882-49.28-15.498-94.692c1.458-4.947,0.574-10.122-2.421-14.196c-3.016-4.108-7.858-6.56-12.955-6.56h-98.885
	c-5.097,0-9.94,2.452-12.954,6.557c-2.997,4.079-3.88,9.255-2.422,14.199c13.376,45.386-14.313,92.7-15.498,94.691
	C128.263,258.101,128.148,258.305,128.07,258.458z M141.525,265.551c3.773-6.39,31.738-56.279,16.91-106.59h100.461
	c-14.814,50.269,13.062,100.068,16.912,106.59c7.201,14.263,10.852,26.06,10.852,35.065c0,43.007-34.988,77.996-77.995,77.996
	s-77.995-34.988-77.995-77.996C130.671,291.618,134.317,279.831,141.525,265.551z"/>
<path d="M417.612,29.434c-2.692-3.224-7.486-3.655-10.709-0.964l-38.526,32.165c-7.131-5.891-16.269-9.434-26.218-9.434
	c-16.496,0-31.192,9.911-37.693,24.516c-4.675-2.291-9.59-4.159-14.689-5.585c7.247-49.114,0.872-58.693-7.176-61.566
	c-6.654-2.374-15.338-0.514-32.737,24.632c-7.48-23.791-14.73-33.605-24.035-33.184c-8.572,0.376-17.556,7.657-25.183,57.951
	c-3.493,23.032-5.455,47.203-5.726,59.195h-0.561l-7.503-66.811c-0.649-5.772-3.746-10.996-8.5-14.333l-46.06-32.331
	c-9.15-6.423-21.822-4.202-28.246,4.947c-3.112,4.434-4.311,9.813-3.377,15.147c0.934,5.335,3.89,9.988,8.323,13.099l38.578,27.079
	l4.281,38.12c0.468,4.173,4.227,7.177,8.405,6.708c4.173-0.468,7.177-4.232,6.708-8.405l-4.664-41.526
	c-0.243-2.166-1.404-4.123-3.188-5.375l-41.384-29.049c-2.288-1.606-2.843-4.773-1.237-7.061c1.607-2.287,4.774-2.842,7.062-1.237
	l46.059,32.331c1.188,0.834,1.964,2.14,2.125,3.583l7.312,65.114h-48c-5.957,0-11.491,3.215-14.441,8.391
	c-2.764,4.849-2.671,10.862-0.103,16.261c26.337,55.384,2.601,90.306-1.523,97.153c-2.167,3.597-1.03,8.31,2.59,10.437
	c5.489,3.225,9.01-0.221,10.437-2.59c6.551-10.876,29.136-55.088,2.064-111.868c-0.358-0.75-0.474-1.473-0.252-1.861
	c0.25-0.44,0.721-0.714,1.228-0.714h155.223c0.507,0,0.978,0.274,1.229,0.714c0.222,0.388,0.122,1.119-0.253,1.861
	c-12.8,25.284-16.48,51.229-10.939,77.114c4.442,20.745,13.843,36.038,17.858,42.568c0.655,1.066,1.332,2.168,1.542,2.581
	c9.146,17.984,13.784,33.434,13.784,45.922c0,55.6-45.233,100.834-100.833,100.834s-100.833-45.234-100.833-100.834
	c0-10.339,3.211-22.801,9.542-37.038c1.707-3.837-0.02-8.331-3.858-10.037c-3.839-1.708-8.331,0.02-10.037,3.858
	c-7.203,16.195-10.855,30.735-10.855,43.218c0,50.618,32.581,93.764,77.87,109.584c0.291,0.229,15.116,8.046,15.116,25.945
	c-7.142,6.473-11.301,15.715-11.301,25.463c0,1.905,0.159,3.781,0.461,5.623H163.57c-11.651,0-21.13,9.479-21.13,21.13
	c0,11.651,9.479,21.13,21.13,21.13h90.184c11.65,0,21.13-9.479,21.13-21.13c0-11.651-9.48-21.13-21.13-21.13h-11.197
	c0.302-1.842,0.461-3.718,0.461-5.623c0-9.729-4.146-18.956-11.263-25.428c0-17.68,14.773-25.627,15.16-26.008
	c45.246-15.845,77.788-58.968,77.788-109.555c0-14.907-5.193-32.676-15.436-52.816c-0.489-0.961-1.183-2.091-2.143-3.652
	c-6.446-10.484-23.425-38.111-16.499-75.311h44.769c9.783,0,17.743-7.96,17.743-17.743c0-7.175-0.892-14.142-2.543-20.814
	c18.699-3.906,32.789-20.516,32.789-40.359c0-7.305-1.917-14.166-5.263-20.122l38.525-32.165
	C419.872,37.454,420.304,32.658,417.612,29.434z M197.698,448.428c2.03-1.423,3.239-3.747,3.239-6.227
	c0-9.831-2.023-17.608-4.975-23.732c4.174,0.456,8.412,0.699,12.706,0.699c4.38,0,8.702-0.252,12.958-0.728
	c-3.063,6.149-5.198,13.956-5.198,23.783c0,2.476,1.204,4.797,3.231,6.221c5.108,3.591,8.158,9.45,8.158,15.673
	c0,1.938-0.284,3.818-0.838,5.623h-36.62c-0.555-1.806-0.839-3.686-0.839-5.623C189.518,457.883,192.576,452.018,197.698,448.428z
	 M253.759,484.948c3.266,0,5.922,2.656,5.922,5.922s-2.656,5.922-5.922,5.922h-90.184c-3.266,0-5.922-2.656-5.922-5.922
	s2.656-5.922,5.922-5.922H253.759z M214.977,65.062c4.541-32.141,9.236-44.011,11.588-48.199c2.27,3.333,6.665,11.93,12.377,33.343
	c-0.502,0.83-22.817,41.128-28.041,52.698C211.696,92.202,213.067,78.576,214.977,65.062z M248.714,84.663v32.496h-27.088
	c0.164-0.644,13.929-31.028,26.391-52.44c16.334-28.067,25.16-37.285,28.915-40.272c0.941,4.352,1.862,15.631-2.115,42.884
	c-2.753-0.265-5.539-0.411-8.359-0.411C256.674,66.92,248.714,74.879,248.714,84.663z M335.399,156.139h-40.702
	c1.629-4.662,3.652-9.442,6.126-14.33c2.7-5.333,2.661-11.411-0.104-16.262c-2.95-5.175-8.483-8.389-14.439-8.389h-22.357V84.663
	c0-1.397,1.137-2.535,2.535-2.535c39.413,0,71.477,32.064,71.477,71.477C337.933,155.002,336.797,156.139,335.399,156.139z
	 M345.562,118.225c-6.188-13.78-15.861-25.663-27.906-34.512c3.636-10.204,13.414-17.304,24.503-17.304
	c14.348,0,26.022,11.674,26.022,26.023C368.18,105.627,358.307,116.551,345.562,118.225z"/>
<g>
</g>
<g>
</g>
<g>
</g>
<g>
</g>
<g>
</g>
<g>
</g>
<g>
</g>
<g>
</g>
<g>
</g>
<g>
</g>
<g>
</g>
<g>
</g>
<g>
</g>
<g>
</g>
<g>
</g>
</svg>
