<svg height="511pt" viewBox="-46 1 511 511.99999" width="511pt" xmlns="http://www.w3.org/2000/svg"><path d="m181.210938 0-39.652344 20.34375c17.195312 17.195312 43.519531 21.328125 65.15625 10.226562l1.605468-.820312 57.984376-29.75zm0 0" fill="#bc69dc"/><path d="m141.5625 383.40625 74.636719-38.292969c21.636719-11.101562 47.964843-6.96875 65.160156 10.226563l-74.636719 38.292968c-21.636718 11.101563-47.964844 6.96875-65.160156-10.226562zm0 0" fill="#a261c5"/><path d="m280.714844 477.011719-94.316406-30.355469c-27.339844-8.796875-45.875-34.234375-45.875-62.957031l26.457031 13.582031 21.925781 1.992188 45.933594 14.78125c27.339844 8.796874 45.875 34.234374 45.875 62.957031zm0 0" fill="#bc69dc"/><path d="m234.839844 414.054688-94.316406-30.355469c0 3.398437.269531 6.75.769531 10.035156l63.144531 20.320313c24.101562 7.757812 41.355469 28.453124 45.101562 52.925781l31.175782 10.03125c0-28.722657-18.535156-54.160157-45.875-62.957031zm0 0" fill="#a261c5"/><path d="m141.5625 262.503906 74.636719-38.292968c21.636719-11.101563 47.964843-6.96875 65.160156 10.222656l-74.636719 38.296875c-21.636718 11.101562-47.964844 6.96875-65.160156-10.226563zm0 0" fill="#a261c5"/><path d="m280.714844 356.105469-17.570313-15.789063-13.601562 5.757813-63.144531-20.320313c-27.339844-8.800781-45.875-34.238281-45.875-62.957031l25.847656 14.398437 23.296875 1.417969 45.171875 14.535157c27.339844 8.800781 45.875 34.238281 45.875 62.957031zm0 0" fill="#bc69dc"/><path d="m234.839844 293.148438-94.316406-30.351563c0 3.398437.269531 6.746094.769531 10.03125l63.144531 20.320313c24.101562 7.757812 41.355469 28.453124 45.101562 52.925781l31.175782 10.03125c0-28.71875-18.535156-54.15625-45.875-62.957031zm0 0" fill="#a261c5"/><path d="m141.5625 141.597656 74.636719-38.292968c21.636719-11.101563 47.964843-6.96875 65.160156 10.226562l-74.636719 38.292969c-21.636718 11.101562-47.964844 6.96875-65.160156-10.226563zm0 0" fill="#a261c5"/><path d="m280.714844 235.203125-14.453125-14.265625-16.722657 4.230469-63.140624-20.320313c-27.339844-8.796875-45.875-34.234375-45.875-62.957031l24.53125 12.960937 24.390624 2.785157 45.390626 14.605469c27.34375 8.800781 45.878906 34.238281 45.878906 62.960937zm0 0" fill="#bc69dc"/><path d="m234.839844 172.246094-94.316406-30.355469c0 3.398437.269531 6.75.769531 10.035156l63.144531 20.320313c24.101562 7.757812 41.355469 28.453125 45.101562 52.921875l31.175782 10.035156c0-28.722656-18.535156-54.160156-45.875-62.957031zm0 0" fill="#a261c5"/><path d="m281.753906 113.675781-13.355468-12.757812-17.820313 2.722656-63.140625-20.320313c-27.339844-8.796874-45.875-34.234374-45.875-62.957031l94.3125 30.355469c27.34375 8.796875 45.878906 34.234375 45.878906 62.957031zm0 0" fill="#bc69dc"/><path d="m235.878906 50.71875-94.316406-30.355469c0 3.398438.269531 6.75.769531 10.035157l63.140625 20.320312c24.105469 7.757812 41.359375 28.453125 45.105469 52.925781l31.175781 10.03125c0-28.722656-18.535156-54.160156-45.875-62.957031zm0 0" fill="#a261c5"/><path d="m295.390625 215.789062c-10.71875-1.875-20.929687 5.296876-22.800781 16.015626-1.875 10.722656 5.296875 20.929687 16.019531 22.804687 10.71875 1.871094 20.925781-5.300781 22.800781-16.019531 1.871094-10.722656-5.300781-20.929688-16.019531-22.800782zm0 0" fill="#ffe999"/><path d="m151.886719 260.984375c0 10.882813-8.820313 19.707031-19.703125 19.707031-10.882813 0-19.703125-8.824218-19.703125-19.707031 0-10.878906 8.820312-19.703125 19.703125-19.703125 10.882812 0 19.703125 8.824219 19.703125 19.703125zm0 0" fill="#ffcf3b"/><path d="m312.546875 356.105469c0 10.882812-8.820313 19.703125-19.703125 19.703125s-19.703125-8.820313-19.703125-19.703125c0-10.882813 8.820313-19.703125 19.703125-19.703125s19.703125 8.820312 19.703125 19.703125zm0 0" fill="#ffcf3b"/><path d="m145.042969 140.324219c0 10.882812-8.824219 19.703125-19.707031 19.703125-10.878907 0-19.703126-8.820313-19.703126-19.703125 0-10.882813 8.824219-19.703125 19.703126-19.703125 10.882812 0 19.707031 8.820312 19.707031 19.703125zm0 0" fill="#ffe999"/><path d="m312.546875 120.621094c0 10.882812-8.820313 19.703125-19.703125 19.703125s-19.703125-8.820313-19.703125-19.703125c0-10.882813 8.820313-19.703125 19.703125-19.703125s19.703125 8.820312 19.703125 19.703125zm0 0" fill="#ffcf3b"/><path d="m145.042969 382.050781c0 10.882813-8.824219 19.703125-19.707031 19.703125-10.878907 0-19.703126-8.820312-19.703126-19.703125 0-10.882812 8.824219-19.703125 19.703126-19.703125 10.882812 0 19.707031 8.820313 19.707031 19.703125zm0 0" fill="#ffe999"/><path d="m301.457031 492.296875c0 10.882813-8.824219 19.703125-19.703125 19.703125-10.882812 0-19.707031-8.820312-19.707031-19.703125s8.824219-19.703125 19.707031-19.703125c10.878906 0 19.703125 8.820312 19.703125 19.703125zm0 0" fill="#ffcf3b"/><path d="m56.15625 232.574219-15.800781 21.746093c-9.265625 12.75-27.109375 15.574219-39.855469 6.3125l15.800781-21.75c9.265625-12.746093 27.109375-15.570312 39.855469-6.308593zm0 0" fill="#ff9619"/><path d="m66.234375 431.363281-15.800781 21.746094c-9.265625 12.746094-27.109375 15.570313-39.855469 6.308594l15.800781-21.746094c9.261719-12.75 27.109375-15.574219 39.855469-6.308594zm0 0" fill="#ffcf3b"/><path d="m66.234375 431.363281-15.800781 21.746094c-9.265625 12.746094-27.109375 15.570313-39.855469 6.308594l15.800781-21.746094c9.261719-12.75 27.109375-15.574219 39.855469-6.308594zm0 0" fill="#ffbc19"/><path d="m378.15625 399.871094 22.015625 15.421875c12.90625 9.042969 16.039063 26.832031 7 39.738281l-22.019531-15.421875c-12.90625-9.042969-16.039063-26.832031-6.996094-39.738281zm0 0" fill="#f67a22"/><path d="m12.8125 53.132812 22.015625 15.421876c12.90625 9.042968 16.039063 26.835937 7 39.742187l-22.015625-15.425781c-12.90625-9.039063-16.042969-26.832032-7-39.738282zm0 0" fill="#ffe999"/><path d="m12.8125 53.132812 22.015625 15.421876c12.90625 9.042968 16.039063 26.835937 7 39.742187l-22.015625-15.425781c-12.90625-9.039063-16.042969-26.832032-7-39.738282zm0 0" fill="#ffbc19"/><path d="m420.246094 226.722656-15.425782 22.015625c-9.039062 12.90625-26.832031 16.039063-39.738281 7l15.421875-22.015625c9.042969-12.90625 26.832032-16.039062 39.742188-7zm0 0" fill="#ffe999"/><path d="m420.246094 226.722656-15.425782 22.015625c-9.039062 12.90625-26.832031 16.039063-39.738281 7l15.421875-22.015625c9.042969-12.90625 26.832032-16.039062 39.742188-7zm0 0" fill="#ffbc19"/><path d="m396.21875 90.0625-26.480469-4.625c-15.523437-2.710938-25.90625-17.496094-23.195312-33.015625l26.480469 4.625c15.523437 2.710937 25.910156 17.492187 23.195312 33.015625zm0 0" fill="#f67a22"/></svg>